<svg width="80" height="19" viewBox="0 0 80 19" fill="none" xmlns="http://www.w3.org/2000/svg">
<path d="M9.32109 2.51419C13.0754 2.51419 16.1308 5.56672 16.1308 9.32389C16.1308 13.0811 13.0754 16.1336 9.32109 16.1336C5.56673 16.1336 2.51134 13.0811 2.51134 9.32389C2.51134 5.56672 5.56391 2.51419 9.32109 2.51419ZM9.32109 0C4.17153 0 0 4.17151 0 9.32107C0 14.4706 4.17153 18.6421 9.32109 18.6421C14.4706 18.6421 18.6422 14.4706 18.6422 9.32107C18.6422 4.17151 14.4678 0 9.32109 0ZM41.1965 2.51419C44.9508 2.51419 48.0062 5.56672 48.0062 9.32389C48.0062 13.0811 44.9508 16.1336 41.1965 16.1336C37.4421 16.1336 34.3868 13.0811 34.3868 9.32389C34.3868 5.56672 37.4393 2.51419 41.1965 2.51419ZM41.1965 0C36.0469 0 31.8754 4.17151 31.8754 9.32107C31.8754 14.4706 36.0469 18.6421 41.1965 18.6421C46.346 18.6421 50.5175 14.4706 50.5175 9.32107C50.5175 4.17151 46.3432 0 41.1965 0ZM70.6789 2.51419C74.4333 2.51419 77.4886 5.56672 77.4886 9.32389C77.4886 13.0811 74.4333 16.1336 70.6789 16.1336C66.9246 16.1336 63.8692 13.0811 63.8692 9.32389C63.8692 5.56672 66.9217 2.51419 70.6789 2.51419ZM70.6789 0C65.5294 0 61.3578 4.17151 61.3578 9.32107C61.3578 14.4706 65.5294 18.6421 70.6789 18.6421C75.8285 18.6421 80 14.4706 80 9.32107C80 4.17151 75.8257 0 70.6789 0Z" fill="#EFDAED"/>
</svg>
