<svg width="26" height="27" viewBox="0 0 26 27" fill="none" xmlns="http://www.w3.org/2000/svg">
<path d="M9.84685 10.3587C10.1015 9.6347 10.6043 9.02417 11.266 8.63528C11.9277 8.2464 12.7057 8.10424 13.4621 8.234C14.2186 8.36375 14.9047 8.75704 15.399 9.34421C15.8933 9.93138 16.1638 10.6745 16.1627 11.4421C16.1627 13.6087 12.9127 14.6921 12.9127 14.6921M12.9993 19.0254H13.0102M23.8327 13.6087C23.8327 19.5918 18.9824 24.4421 12.9993 24.4421C7.01626 24.4421 2.16602 19.5918 2.16602 13.6087C2.16602 7.62564 7.01626 2.77539 12.9993 2.77539C18.9824 2.77539 23.8327 7.62564 23.8327 13.6087Z" stroke="#ADADAD" stroke-width="1.3" stroke-linecap="round" stroke-linejoin="round"/>
</svg>
